<svg xmlns="http://www.w3.org/2000/svg" viewBox="0 0 560 436" width="560" height="436">
  <g transform="translate(180,20)">
  <circle cx="100" cy="100" r="95" fill="#7B1E22"/>
  <circle cx="100" cy="100" r="95" fill="none" stroke="#D9A441" stroke-width="4.5"/>
  <circle cx="100" cy="100" r="86" fill="none" stroke="#D9A441" stroke-width="1.4" opacity=".5"/>
  <circle cx="100" cy="29" r="4.5" fill="#D9A441"/>
  <rect x="98.6" y="32" width="2.8" height="8" fill="#D9A441"/>
  <path d="M100 38 C110 62 120 86 124 110 L76 110 C80 86 90 62 100 38 Z" fill="#D9A441"/>
  <path d="M100 46 C104 68 108 89 110 108" stroke="#C0872E" stroke-width="1.6" fill="none" opacity=".85"/>
  <path d="M100 46 C96 68 92 89 90 108" stroke="#C0872E" stroke-width="1.6" fill="none" opacity=".85"/>
  <rect x="68" y="110" width="64" height="7" rx="1.5" fill="#C0872E"/>
  <rect x="74" y="117" width="52" height="28" fill="#D9A441"/>
  <path d="M90 145 L90 132 A10 10 0 0 1 110 132 L110 145 Z" fill="#7B1E22"/>
  <rect x="62" y="145" width="76" height="8" rx="2" fill="#D9A441"/>
  <rect x="56" y="153" width="88" height="5" rx="2" fill="#C0872E"/>
  <path d="M58 172 Q100 158 142 172" stroke="#E9531F" stroke-width="7" fill="none" stroke-linecap="round"/>
  <circle cx="100" cy="165" r="3.4" fill="#FFF3E2"/></g>
  <text x="280" y="282" text-anchor="middle" font-family="Georgia, 'Times New Roman', serif" font-size="40"
        letter-spacing="4" fill="#7B1E22">DARSHAN YATRA SEVA</text>
  <line x1="130" y1="308" x2="266.0" y2="308" stroke="#C0872E" stroke-width="1.3"/><line x1="294.0" y1="308" x2="430" y2="308" stroke="#C0872E" stroke-width="1.3"/><path d="M280.0 303 L285.0 308 L280.0 313 L275.0 308 Z" fill="#C0872E"/>
  <text x="280" y="366" text-anchor="middle" font-family="'Nirmala UI', 'Mangal', 'Noto Sans Devanagari', sans-serif" font-size="42"
        fill="#C0872E">दर्शन यात्रा सेवा</text>
  <text x="280" y="408" text-anchor="middle" font-family="'Nirmala UI', 'Mangal', 'Noto Sans Devanagari', sans-serif" font-size="19"
        fill="#5C4A43">आस्था की यात्रा, सेवा के साथ</text>
</svg>